<?xml version="1.0" encoding="UTF-8"?>
<svg version="1.1" xmlns="http://www.w3.org/2000/svg" width="425" height="115">
<path d="M0 0 C1.88671875 1.63671875 1.88671875 1.63671875 3 3 C2.34 4.32 1.68 5.64 1 7 C0.40574219 6.72285156 -0.18851563 6.44570313 -0.80078125 6.16015625 C-10.04772086 2.11911421 -18.32548232 0.83076145 -28 4 C-29.423125 4.2784375 -29.423125 4.2784375 -30.875 4.5625 C-33.4808719 6.32529569 -33.64228991 7.26421116 -34.4375 10.25 C-35.11355923 14.4201475 -35.25297684 17.27392292 -33 21 C-26.37577412 24.78207491 -19.56991131 26.73035088 -12.24609375 28.7109375 C-5.01156495 30.75906894 0.89841199 33.31593065 5 40 C6.51512609 46.70984413 5.91753516 51.56441616 2.5 57.6875 C-3.20547159 62.96506122 -11.32346824 65.09953364 -19 65 C-27.6245343 64.34467582 -36.68903979 62.31096021 -43 56 C-42.625 53.875 -42.625 53.875 -42 52 C-37.84030624 52 -35.1833447 53.86948931 -31.5703125 55.80859375 C-25.05458664 58.82880103 -16.76762821 59.07738218 -9.8046875 57.50390625 C-5.7087497 55.93468333 -3.05511295 53.85333678 -1 50 C-0.65644233 47.07975978 -0.98078876 44.75523039 -2 42 C-6.82494455 36.10284555 -13.88050933 34.92418667 -21 33 C-29.10587425 30.80442804 -36.41541033 28.64098278 -41 21 C-42.4697142 15.74526842 -42.41728245 10.86991445 -40.1953125 5.85546875 C-36.82887194 0.62978488 -31.96465735 -2.05156293 -26 -3.375 C-16.48391885 -4.76125765 -8.97484349 -3.67096881 0 0 Z " fill="#6895BE" transform="translate(193,22)"/>
<path d="M0 0 C1.67542976 0.28604898 3.34385343 0.61781233 5 1 C5.07471366 7.0648333 5.12886656 13.12939276 5.16479492 19.19458008 C5.17978857 21.25354689 5.20019033 23.31248227 5.22631836 25.37133789 C5.55152662 51.67494722 5.55152662 51.67494722 -1.125 60.4375 C-6.77918975 66.22207987 -13.47696906 68.53636242 -21.45703125 69.03125 C-30.60741714 68.91880286 -37.82438789 66.17561211 -44.3125 59.6875 C-48.88026137 52.41291707 -49.42174879 46.10775417 -49.29296875 37.71875 C-49.28660149 36.13761414 -49.28660149 36.13761414 -49.28010559 34.52453613 C-49.26341405 31.18275595 -49.22577909 27.8415956 -49.1875 24.5 C-49.17244088 22.22396709 -49.15875463 19.94792465 -49.14648438 17.671875 C-49.11354181 12.11437454 -49.06343806 6.55723158 -49 1 C-47.35 1 -45.7 1 -44 1 C-43.98382629 1.57105469 -43.96765259 2.14210938 -43.95098877 2.73046875 C-43.77818686 8.70155333 -43.5791599 14.67136362 -43.36523438 20.64111328 C-43.28891034 22.86582959 -43.21916063 25.09078196 -43.15625 27.31591797 C-43.0643864 30.52396718 -42.94850358 33.73040926 -42.828125 36.9375 C-42.80502258 37.92427734 -42.78192017 38.91105469 -42.75811768 39.92773438 C-42.48751093 46.33122549 -41.16089707 50.42921598 -38 56 C-38 56.66 -38 57.32 -38 58 C-37.278125 58.28875 -36.55625 58.5775 -35.8125 58.875 C-34.08042325 59.5678307 -32.35850305 60.28760447 -30.65625 61.05078125 C-24.90629769 63.10554362 -18.32926949 62.71315811 -12.5625 60.8125 C-6.82116445 57.89146963 -4.81866968 54.30463784 -2.63970947 48.33737183 C-1.47271967 44.07342202 -1.53865123 39.80605324 -1.5234375 35.41015625 C-1.50785797 34.42502548 -1.49227844 33.43989471 -1.47622681 32.4249115 C-1.42899902 29.30411468 -1.4010187 26.18353942 -1.375 23.0625 C-1.33852325 19.91662029 -1.29799975 16.77086673 -1.25234985 13.62510681 C-1.22508651 11.67316611 -1.20375126 9.72113215 -1.18881226 7.76905823 C-1.17341904 6.45650307 -1.17341904 6.45650307 -1.15771484 5.11743164 C-1.15121918 4.34436172 -1.14472351 3.57129181 -1.13803101 2.77479553 C-1 1 -1 1 0 0 Z " fill="#93B6D6" transform="translate(330,18)"/>
<path d="M0 0 C-0.66 1.65 -1.32 3.3 -2 5 C-3.66675781 4.44119141 -3.66675781 4.44119141 -5.3671875 3.87109375 C-17.00515996 -0.14594101 -17.00515996 -0.14594101 -29 1 C-32.81128383 3.04175919 -34.60679758 4.41019637 -37 8 C-37.46474867 10.10683448 -37.46474867 10.10683448 -37.5 12.375 C-37.5515625 13.12523438 -37.603125 13.87546875 -37.65625 14.6484375 C-36.61480243 18.38029128 -34.2282048 20.13983597 -31 22 C-27.23620598 23.45425859 -23.39433827 24.51629661 -19.5 25.5625 C-2.71949146 30.1341809 -2.71949146 30.1341809 2 38 C3.27416666 42.6341267 3.25934202 46.13552661 1.875 50.75 C-1.35763749 56.35323831 -4.74889484 59.44366902 -10.84375 61.43359375 C-21.85522272 64.32610017 -32.03979604 62.52580405 -42.0390625 57.21875 C-44 56 -44 56 -46 54 C-45.75 51.9375 -45.75 51.9375 -45 50 C-44.01 49.505 -44.01 49.505 -43 49 C-41.265625 49.92578125 -41.265625 49.92578125 -39.25 51.3125 C-31.40792809 56.70006515 -23.25739806 56.81187876 -14 56 C-10.16658305 54.91749216 -6.96185698 53.59566341 -4.8203125 50.04296875 C-3.30626072 46.27225884 -3.58754041 43.15488685 -4.9375 39.375 C-10.36928835 33.12021341 -19.78882718 31.82474475 -27.52758789 29.92578125 C-33.44605437 28.40518376 -37.67097497 25.96128424 -42.375 22 C-44.99729034 17.15884861 -44.69879634 12.37645347 -44 7 C-42.73389001 3.00250666 -40.55374648 0.49972244 -37.4375 -2.3125 C-25.94665974 -7.95345795 -10.56780351 -7.65254737 0 0 Z " fill="#A2C3DF" transform="translate(404,24)"/>
<path d="M0 0 C1.46623055 -0.00472824 1.46623055 -0.00472824 2.96208191 -0.009552 C4.53413139 -0.00651566 4.53413139 -0.00651566 6.13793945 -0.00341797 C7.21751419 -0.00437469 8.29708893 -0.00533142 9.40937805 -0.00631714 C11.68812112 -0.00699709 13.96686613 -0.00515567 16.24560547 -0.00097656 C19.748172 0.00438986 23.2506112 -0.00093582 26.75317383 -0.00732422 C28.96476265 -0.00666371 31.1763514 -0.00538312 33.38793945 -0.00341797 C34.44204514 -0.0054422 35.49615082 -0.00746643 36.5821991 -0.009552 C37.55022964 -0.00639984 38.51826019 -0.00324768 39.515625 0 C40.79991646 0.00119339 40.79991646 0.00119339 42.1101532 0.00241089 C44.0637207 0.12939453 44.0637207 0.12939453 45.0637207 1.12939453 C45.0637207 2.77939453 45.0637207 4.42939453 45.0637207 6.12939453 C37.1437207 6.12939453 29.2237207 6.12939453 21.0637207 6.12939453 C21.0637207 26.58939453 21.0637207 47.04939453 21.0637207 68.12939453 C19.0837207 68.12939453 17.1037207 68.12939453 15.0637207 68.12939453 C15.0637207 47.66939453 15.0637207 27.20939453 15.0637207 6.12939453 C7.1437207 6.12939453 -0.7762793 6.12939453 -8.9362793 6.12939453 C-8.9362793 4.47939453 -8.9362793 2.82939453 -8.9362793 1.12939453 C-5.888439 0.24302902 -3.16949738 0.00293697 0 0 Z " fill="#4773A8" transform="translate(20.936279296875,17.87060546875)"/>
<path d="M0 0 C17.82 0 35.64 0 54 0 C53.67 1.65 53.34 3.3 53 5 C45.41 5 37.82 5 30 5 C30 25.46 30 45.92 30 67 C28.02 67 26.04 67 24 67 C24 46.54 24 26.08 24 5 C16.08 5 8.16 5 0 5 C0 3.35 0 1.7 0 0 Z " fill="#7DA9D3" transform="translate(210,19)"/>
<path d="M0 0 C1.25623924 -0.00472824 1.25623924 -0.00472824 2.53785706 -0.009552 C3.44309616 -0.00752777 4.34833527 -0.00550354 5.28100586 -0.00341797 C6.20803818 -0.00437469 7.1350705 -0.00533142 8.0901947 -0.00631714 C10.05134143 -0.00699823 12.01249041 -0.00514886 13.97363281 -0.00097656 C16.98694888 0.00437871 20.00011629 -0.00092705 23.01342773 -0.00732422 C24.91512077 -0.00666354 26.81681372 -0.0053826 28.71850586 -0.00341797 C29.6257692 -0.0054422 30.53303253 -0.00746643 31.4677887 -0.009552 C37.81839583 0.01444076 37.81839583 0.01444076 38.93334961 1.12939453 C38.93334961 2.77939453 38.93334961 4.42939453 38.93334961 6.12939453 C24.41334961 6.12939453 9.89334961 6.12939453 -5.06665039 6.12939453 C-5.39665039 4.47939453 -5.72665039 2.82939453 -6.06665039 1.12939453 C-3.788544 -0.00965866 -2.52968669 0.00272464 0 0 Z " fill="#4D97C2" transform="translate(90.066650390625,79.87060546875)"/>
<path d="M0 0 C14.52 0 29.04 0 44 0 C44 1.65 44 3.3 44 5 C42.05136075 6.94863925 39.1019128 6.1291874 36.50878906 6.13894653 C35.59838867 6.1369223 34.68798828 6.13489807 33.75 6.1328125 C32.82155273 6.13376923 31.89310547 6.13472595 30.93652344 6.13571167 C28.96940035 6.13639355 27.00227504 6.13453872 25.03515625 6.13037109 C22.01296974 6.12502295 18.99093185 6.13031582 15.96875 6.13671875 C14.06249967 6.13605797 12.15624943 6.13477681 10.25 6.1328125 C8.88439941 6.13584885 8.88439941 6.13584885 7.49121094 6.13894653 C1.11494969 6.11494969 1.11494969 6.11494969 0 5 C0 3.35 0 1.7 0 0 Z " fill="#627E9C" transform="translate(85,49)"/>
<path d="M0 0 C17.82 0 35.64 0 54 0 C53.67 1.65 53.34 3.3 53 5 C45.41 5 37.82 5 30 5 C30 25.46 30 45.92 30 67 C28.02 67 26.04 67 24 67 C24 46.54 24 26.08 24 5 C16.08 5 8.16 5 0 5 C0 3.35 0 1.7 0 0 Z M2 1 C2 1.99 2 2.98 2 4 C9.26 4.33 16.52 4.66 24 5 C24.33 25.13 24.66 45.26 25 66 C26.32 66 27.64 66 29 66 C29 45.54 29 25.08 29 4 C36.59 4 44.18 4 52 4 C51.505 2.515 51.505 2.515 51 1 C34.83 1 18.66 1 2 1 Z " fill="#7C9DBD" transform="translate(210,19)"/>
<path d="M0 0 C1.32 0.33 2.64 0.66 4 1 C4 20.8 4 40.6 4 61 C2.68 61 1.36 61 0 61 C0 40.87 0 20.74 0 0 Z " fill="#4579B6" transform="translate(37,25)"/>
<path d="M0 0 C1 1 1 1 1 6 C-13.52 6 -28.04 6 -43 6 C-43 4.35 -43 2.7 -43 1 C-38.80493516 0.85497017 -34.60978788 0.71269034 -30.41455078 0.57275391 C-28.99297687 0.5249726 -27.57142626 0.4764921 -26.14990234 0.42724609 C-5.4118629 -0.28987736 -5.4118629 -0.28987736 0 0 Z " fill="#4F82C4" transform="translate(128,18)"/>
<path d="M0 0 C12.87 0 25.74 0 39 0 C39 0.99 39 1.98 39 3 C33.94630895 3.14312954 28.89259795 3.28552568 23.83886719 3.42724609 C22.12011152 3.4755476 20.40136145 3.52404852 18.68261719 3.57275391 C16.21030095 3.64277905 13.7379654 3.71208397 11.265625 3.78125 C10.11540863 3.81406067 10.11540863 3.81406067 8.94195557 3.84753418 C5.62581869 3.93968772 2.31777923 4 -1 4 C-0.67 2.68 -0.34 1.36 0 0 Z " fill="#5786BE" transform="translate(88,50)"/>
<path d="M0 0 C7.98741841 -0.53249456 16.43676147 1.24731003 23 6 C22.34 7.65 21.68 9.3 21 11 C16.05 9.02 16.05 9.02 11 7 C11 5.68 11 4.36 11 3 C9.6696875 3.061875 9.6696875 3.061875 8.3125 3.125 C5.02722987 3.00102754 2.94550705 2.38612096 0 1 C0 0.67 0 0.34 0 0 Z " fill="#A1C0DE" transform="translate(381,18)"/>
<path d="M0 0 C0.82757813 0.49113281 0.82757813 0.49113281 1.671875 0.9921875 C4.38780923 2.16787715 6.30551759 2.20248638 9.25 2.125 C10.58804688 2.09792969 10.58804688 2.09792969 11.953125 2.0703125 C12.62859375 2.04710938 13.3040625 2.02390625 14 2 C14.33 3.32 14.66 4.64 15 6 C8.28600625 7.17228462 3.17994554 7.12720136 -3 4 C-4.7578125 2.390625 -4.7578125 2.390625 -6 1 C-3.03 1.495 -3.03 1.495 0 2 C0 1.34 0 0.68 0 0 Z " fill="#6598C3" transform="translate(168,80)"/>
<path d="M0 0 C0.99 0.495 0.99 0.495 2 1 C2.625 3.5625 2.625 3.5625 3 6 C3.66 5.01 4.32 4.02 5 3 C5.66 3 6.32 3 7 3 C7.28875 3.78375 7.5775 4.5675 7.875 5.375 C8.84912254 8.09671632 8.84912254 8.09671632 11 10 C10.34 10.66 9.68 11.32 9 12 C9.66 13.32 10.32 14.64 11 16 C6.36299964 14.67514276 3.33947617 12.18738926 1 8 C0.32639477 5.26624446 0.14657956 2.83387146 0 0 Z " fill="#6B92BB" transform="translate(151,35)"/>
<path d="M0 0 C1 2 1 2 0.8125 5.9375 C0.72493916 8.061968 0.72493916 8.061968 1 10 C2.84395635 11.8628419 2.84395635 11.8628419 5 13 C5.33 13.99 5.66 14.98 6 16 C6.99 16.33 7.98 16.66 9 17 C9.33 17.99 9.66 18.98 10 20 C7.69 19.34 5.38 18.68 3 18 C3 17.34 3 16.68 3 16 C2.01 15.67 1.02 15.34 0 15 C0 14.34 0 13.68 0 13 C-0.99 12.67 -1.98 12.34 -3 12 C-2.67 11.67 -2.34 11.34 -2 11 C-1.96854193 8.70356092 -2.0680779 6.42349871 -2.16015625 4.12890625 C-2 2 -2 2 0 0 Z " fill="#A6CBEE" transform="translate(363,30)"/>
<path d="M0 0 C0.66 0 1.32 0 2 0 C2 0.99 2 1.98 2 3 C21.8 3.495 21.8 3.495 42 4 C42.33 2.68 42.66 1.36 43 0 C43.33 0 43.66 0 44 0 C44 1.65 44 3.3 44 5 C29.48 5 14.96 5 0 5 C0 3.35 0 1.7 0 0 Z " fill="#5E84A9" transform="translate(85,19)"/>
<path d="M0 0 C0.99 0.33 1.98 0.66 3 1 C3 2.65 3 4.3 3 6 C-11.52 6 -26.04 6 -41 6 C-40.67 4.68 -40.34 3.36 -40 2 C-40 2.99 -40 3.98 -40 5 C-26.47 5 -12.94 5 1 5 C0.505 2.525 0.505 2.525 0 0 Z " fill="#5C85AC" transform="translate(126,80)"/>
<path d="M0 0 C6.80203375 -0.37634203 11.75690073 0.22528921 18 3 C18 2.34 18 1.68 18 1 C18.66 1.33 19.32 1.66 20 2 C19.67 2.66 19.34 3.32 19 4 C16.20826945 4.02690104 13.41679652 4.04679053 10.625 4.0625 C9.43390625 4.07506836 9.43390625 4.07506836 8.21875 4.08789062 C2.2265625 4.11328125 2.2265625 4.11328125 0 3 C0 2.01 0 1.02 0 0 Z " fill="#A4CAEA" transform="translate(371,81)"/>
<path d="M0 0 C3.41995922 2.92083004 3.7136134 5.30703186 4.07421875 9.6484375 C3.9212097 14.49640861 1.65594471 18.01608293 -1 22 C-1.66 22 -2.32 22 -3 22 C-3 21.01 -3 20.02 -3 19 C-3.66 19 -4.32 19 -5 19 C-4.34 17.68 -3.68 16.36 -3 15 C-2.34 15.66 -1.68 16.32 -1 17 C2.06813137 12.39780294 1.25317679 7.77223751 0.5 2.5 C0.335 1.675 0.17 0.85 0 0 Z " fill="#A4BED7" transform="translate(403,59)"/>
<path d="M0 0 C5.61145145 0.46762095 10.270963 1.84730867 15 5 C15.99 6.485 15.99 6.485 17 8 C16.484375 7.731875 15.96875 7.46375 15.4375 7.1875 C12.33598585 5.67650593 9.17737194 4.34427274 6 3 C6 3.66 6 4.32 6 5 C6.99 5.99 7.98 6.98 9 8 C5.37 7.01 1.74 6.02 -2 5 C-0.68 4.34 0.64 3.68 2 3 C1.34 2.01 0.68 1.02 0 0 Z " fill="#A2BFD8" transform="translate(386,51)"/>
<path d="M0 0 C2 1 2 1 3 2 C4.34747084 2.23075082 5.70377565 2.41153063 7.0625 2.5625 C8.361875 2.706875 9.66125 2.85125 11 3 C11 3.33 11 3.66 11 4 C9.7625 4.28875 8.525 4.5775 7.25 4.875 C4.27551258 5.61334794 1.666144 6.44474933 -1 8 C-0.67 6.68 -0.34 5.36 0 4 C-3.93673644 5.31224548 -6.22719294 6.91910327 -9 10 C-7.63842622 4.70499087 -4.39656045 2.76254467 0 0 Z " fill="#668FB2" transform="translate(162,20)"/>
<path d="M0 0 C2.96175123 0.61277612 4.38058783 1.25372522 7 3 C7.70052461 5.663063 7.77744818 8.24035737 8 11 C7.67 10.34 7.34 9.68 7 9 C6.01 8.67 5.02 8.34 4 8 C3.67 7.34 3.34 6.68 3 6 C2.01 5.34 1.02 4.68 0 4 C0 2.68 0 1.36 0 0 Z " fill="#699DCC" transform="translate(189,57)"/>
<path d="M0 0 C6.52307692 1.47692308 6.52307692 1.47692308 8.9375 4.125 C9.288125 4.74375 9.63875 5.3625 10 6 C8.02 5.34 6.04 4.68 4 4 C4 4.99 4 5.98 4 7 C1.08482708 5.92598892 -0.77810176 5.22189824 -3 3 C-2.34 3 -1.68 3 -1 3 C-0.67 2.01 -0.34 1.02 0 0 Z " fill="#6B93BC" transform="translate(186,54)"/>
<path d="M0 0 C0 0.66 0 1.32 0 2 C-1.2065625 1.9690625 -1.2065625 1.9690625 -2.4375 1.9375 C-4.93354885 1.70366379 -4.93354885 1.70366379 -6 3 C-11.73611111 3.27314815 -11.73611111 3.27314815 -14 3 C-14.66 2.34 -15.32 1.68 -16 1 C-12.62416879 -2.37583121 -4.1066008 -0.94767711 0 0 Z " fill="#6A9AC8" transform="translate(179,20)"/>
<path d="M0 0 C0.36190476 5.42857143 0.36190476 5.42857143 -1.1875 7.875 C-3.56036279 9.34781139 -5.25913944 9.22223194 -8 9 C-7.67 8.34 -7.34 7.68 -7 7 C-6.34 7 -5.68 7 -5 7 C-4.87625 6.030625 -4.7525 5.06125 -4.625 4.0625 C-4.41875 3.051875 -4.2125 2.04125 -4 1 C-2 0 -2 0 0 0 Z " fill="#6A98C8" transform="translate(197,71)"/>
<path d="M0 0 C0.99 0.33 1.98 0.66 3 1 C0.525 5.455 0.525 5.455 -2 10 C-4 6 -4 6 -4 3 C-2.1875 1.25 -2.1875 1.25 0 0 Z " fill="#6895C2" transform="translate(160,23)"/>
<path d="M0 0 C1.48199902 0.44909061 2.96055236 0.90956564 4.4375 1.375 C5.26121094 1.63023438 6.08492187 1.88546875 6.93359375 2.1484375 C9 3 9 3 10 5 C9.0625 7.125 9.0625 7.125 8 9 C5.69 8.01 3.38 7.02 1 6 C4 5 4 5 7 5 C5.5459375 4.319375 5.5459375 4.319375 4.0625 3.625 C1 2 1 2 0 0 Z " fill="#698FB1" transform="translate(186,20)"/>
<path d="M0 0 C10.55808656 3.07517084 10.55808656 3.07517084 15 5 C14.67 5.66 14.34 6.32 14 7 C8.39958947 6.57996921 4.411509 4.31423011 0 1 C0 0.67 0 0.34 0 0 Z " fill="#90B0CB" transform="translate(288,79)"/>
<path d="M0 0 C1.9375 0.8125 1.9375 0.8125 4 2 C4.33 2.99 4.66 3.98 5 5 C2 6 2 6 -0.5 5.25 C-2.87023314 4.06488343 -4.28389306 2.98707119 -6 1 C-3.03 1.495 -3.03 1.495 0 2 C0 1.34 0 0.68 0 0 Z " fill="#669ECE" transform="translate(168,80)"/>
<path d="M0 0 C1.32 0.33 2.64 0.66 4 1 C4.33 2.32 4.66 3.64 5 5 C-1.625 6 -1.625 6 -5 6 C-3.625 4.5 -3.625 4.5 -2 3 C-1.34 3 -0.68 3 0 3 C0 2.01 0 1.02 0 0 Z " fill="#AACEEC" transform="translate(396,77)"/>
<path d="M0 0 C4 4.75 4 4.75 4 7 C4.804375 7.28875 5.60875 7.5775 6.4375 7.875 C9 9 9 9 10 11 C5.35550201 10.00475043 2.69283741 9.03925611 0 5 C-0.125 2.3125 -0.125 2.3125 0 0 Z " fill="#92B1CF" transform="translate(288,69)"/>
<path d="M0 0 C4.455 0.99 4.455 0.99 9 2 C9 2.99 9 3.98 9 5 C6.98177083 4.70703125 4.96354167 4.4140625 2.9453125 4.12109375 C0.91859333 3.8315703 0.91859333 3.8315703 -1 5 C-0.67 3.35 -0.34 1.7 0 0 Z " fill="#669FD0" transform="translate(168,49)"/>
<path d="M0 0 C3.96 1.98 7.92 3.96 12 6 C7.18905094 7.20273727 6.19458287 6.2796646 2 4 C-0.0745356 3.8509288 -0.0745356 3.8509288 -2 5 C-1.125 1.125 -1.125 1.125 0 0 Z " fill="#6B8DAC" transform="translate(152,73)"/>
<path d="M0 0 C3.12826838 0.29100171 4.37427733 1.19380207 6.6875 3.25 C4.3775 3.91 2.0675 4.57 -0.3125 5.25 C-1.3025 3.93 -2.2925 2.61 -3.3125 1.25 C-2.3125 0.25 -2.3125 0.25 0 0 Z " fill="#A6CDF1" transform="translate(383.3125,50.75)"/>
<path d="M0 0 C1.65 0 3.3 0 5 0 C5.042721 1.66611905 5.04063832 3.33382885 5 5 C4 6 4 6 1.0625 6.1875 C-2 6 -2 6 -4 4 C-1.69 4 0.62 4 3 4 C3 3.01 3 2.02 3 1 C2.01 0.67 1.02 0.34 0 0 Z " fill="#587A9C" transform="translate(124,49)"/>
<path d="M0 0 C6.41481258 -0.42765417 11.88595404 1.14256832 18 3 C12.24414199 4.91861934 5.38518926 3.69259463 0 1 C0 0.67 0 0.34 0 0 Z " fill="#97B8CE" transform="translate(381,18)"/>
<path d="M0 0 C0.66 0.33 1.32 0.66 2 1 C1 4 1 4 -1.3125 5.25 C-4.09873015 6.0275526 -5.33438378 5.98726527 -8 5 C-5.56159764 2.56159764 -3.14759102 1.37707107 0 0 Z " fill="#92BCE1" transform="translate(322,78)"/>
<path d="M0 0 C2.97 0.495 2.97 0.495 6 1 C4.35 2.65 2.7 4.3 1 6 C-0.32 5.34 -1.64 4.68 -3 4 C-2.01 3.67 -1.02 3.34 0 3 C0 2.01 0 1.02 0 0 Z " fill="#A6CEEE" transform="translate(368,21)"/>
<path d="M0 0 C2.97526665 2.55022856 4.50122302 5.40293526 6 9 C5.67 9.99 5.34 10.98 5 12 C2.03162219 7.97832683 0.47610659 4.99911924 0 0 Z " fill="#96B5CE" transform="translate(282,67)"/>
<path d="M0 0 C1.32 0 2.64 0 4 0 C3.67 1.65 3.34 3.3 3 5 C1.68 5.33 0.36 5.66 -1 6 C-0.67 4.02 -0.34 2.04 0 0 Z " fill="#8EB8E6" transform="translate(325,72)"/>
<path d="M0 0 C0.99 0.33 1.98 0.66 3 1 C3 2.65 3 4.3 3 6 C1.02 6 -0.96 6 -3 6 C-1.68 5.67 -0.36 5.34 1 5 C0.67 3.35 0.34 1.7 0 0 Z " fill="#5B7CA0" transform="translate(126,80)"/>
</svg>
